<mxfile host="app.diagrams.net" modified="2023-11-17T17:48:49.389Z" agent="Mozilla/5.0 (Macintosh; Intel Mac OS X 10_15_7) AppleWebKit/537.36 (KHTML, like Gecko) Chrome/119.0.0.0 Safari/537.36" etag="16_Y18YIrKfuv59ZDi7E" version="22.1.3" type="device">
  <diagram name="Page-1" id="nlRXHfLinLOHUEahpZhe">
    <mxGraphModel dx="865" dy="597" grid="0" gridSize="10" guides="1" tooltips="1" connect="1" arrows="1" fold="1" page="1" pageScale="1" pageWidth="850" pageHeight="1100" math="0" shadow="0">
      <root>
        <mxCell id="0" />
        <mxCell id="1" parent="0" />
        <mxCell id="OuWQqV3q78x6DmKRBrPg-2" value="VPC" style="sketch=0;outlineConnect=0;gradientColor=none;html=1;whiteSpace=wrap;fontSize=12;fontStyle=0;shape=mxgraph.aws4.group;grIcon=mxgraph.aws4.group_vpc;strokeColor=#879196;fillColor=none;verticalAlign=top;align=left;spacingLeft=30;fontColor=#879196;dashed=0;" parent="1" vertex="1">
          <mxGeometry x="174" y="201" width="442" height="338" as="geometry" />
        </mxCell>
        <mxCell id="OuWQqV3q78x6DmKRBrPg-18" style="edgeStyle=orthogonalEdgeStyle;rounded=0;orthogonalLoop=1;jettySize=auto;html=1;" parent="1" edge="1">
          <mxGeometry relative="1" as="geometry">
            <Array as="points">
              <mxPoint x="182" y="400" />
              <mxPoint x="182" y="303" />
              <mxPoint x="225" y="303" />
            </Array>
            <mxPoint x="133" y="400" as="sourcePoint" />
            <mxPoint x="225" y="303.5" as="targetPoint" />
          </mxGeometry>
        </mxCell>
        <mxCell id="OuWQqV3q78x6DmKRBrPg-1" value="" style="sketch=0;points=[[0,0,0],[0.25,0,0],[0.5,0,0],[0.75,0,0],[1,0,0],[0,1,0],[0.25,1,0],[0.5,1,0],[0.75,1,0],[1,1,0],[0,0.25,0],[0,0.5,0],[0,0.75,0],[1,0.25,0],[1,0.5,0],[1,0.75,0]];outlineConnect=0;fontColor=#232F3E;gradientColor=#F78E04;gradientDirection=north;fillColor=#D05C17;strokeColor=#ffffff;dashed=0;verticalLabelPosition=bottom;verticalAlign=top;align=center;html=1;fontSize=12;fontStyle=0;aspect=fixed;shape=mxgraph.aws4.resourceIcon;resIcon=mxgraph.aws4.eks_cloud;" parent="1" vertex="1">
          <mxGeometry x="83" y="375" width="50" height="50" as="geometry" />
        </mxCell>
        <mxCell id="OuWQqV3q78x6DmKRBrPg-3" value="" style="rounded=0;whiteSpace=wrap;html=1;fillColor=#f5f5f5;fontColor=#333333;strokeColor=#666666;opacity=40;textOpacity=40;" parent="1" vertex="1">
          <mxGeometry x="224.63" y="229" width="373.75" height="139" as="geometry" />
        </mxCell>
        <mxCell id="OuWQqV3q78x6DmKRBrPg-5" value="Default Managed Node Group" style="text;html=1;align=center;verticalAlign=middle;resizable=0;points=[];autosize=1;strokeColor=none;fillColor=none;fontStyle=1;opacity=40;textOpacity=40;" parent="1" vertex="1">
          <mxGeometry x="317.63" y="262" width="187" height="26" as="geometry" />
        </mxCell>
        <mxCell id="OuWQqV3q78x6DmKRBrPg-7" value="Node Group" style="text;html=1;align=center;verticalAlign=middle;resizable=0;points=[];autosize=1;strokeColor=none;fillColor=none;fontStyle=1;opacity=40;textOpacity=40;" parent="1" vertex="1">
          <mxGeometry x="518.63" y="209" width="87" height="26" as="geometry" />
        </mxCell>
        <mxCell id="OuWQqV3q78x6DmKRBrPg-9" value="&lt;b&gt;Amazon EKS&lt;/b&gt;" style="text;html=1;align=center;verticalAlign=middle;resizable=0;points=[];autosize=1;strokeColor=none;fillColor=none;" parent="1" vertex="1">
          <mxGeometry x="64.5" y="349" width="93" height="26" as="geometry" />
        </mxCell>
        <mxCell id="OuWQqV3q78x6DmKRBrPg-16" value="" style="sketch=0;points=[[0,0,0],[0.25,0,0],[0.5,0,0],[0.75,0,0],[1,0,0],[0,1,0],[0.25,1,0],[0.5,1,0],[0.75,1,0],[1,1,0],[0,0.25,0],[0,0.5,0],[0,0.75,0],[1,0.25,0],[1,0.5,0],[1,0.75,0]];outlineConnect=0;fontColor=#232F3E;gradientColor=#F78E04;gradientDirection=north;fillColor=#D05C17;strokeColor=#ffffff;dashed=0;verticalLabelPosition=bottom;verticalAlign=top;align=center;html=1;fontSize=12;fontStyle=0;aspect=fixed;shape=mxgraph.aws4.resourceIcon;resIcon=mxgraph.aws4.ec2;opacity=40;textOpacity=40;" parent="1" vertex="1">
          <mxGeometry x="395.38" y="299" width="37" height="37" as="geometry" />
        </mxCell>
        <mxCell id="OuWQqV3q78x6DmKRBrPg-20" value="m5.large" style="text;html=1;align=center;verticalAlign=middle;resizable=0;points=[];autosize=1;strokeColor=none;fillColor=none;opacity=40;textOpacity=40;" parent="1" vertex="1">
          <mxGeometry x="380.88" y="333" width="65" height="26" as="geometry" />
        </mxCell>
        <mxCell id="OuWQqV3q78x6DmKRBrPg-23" value="&lt;b&gt;Name: &lt;/b&gt;default" style="text;html=1;align=center;verticalAlign=middle;resizable=0;points=[];autosize=1;strokeColor=none;fillColor=none;opacity=40;textOpacity=40;" parent="1" vertex="1">
          <mxGeometry x="367.38" y="277" width="94" height="26" as="geometry" />
        </mxCell>
        <mxCell id="OuWQqV3q78x6DmKRBrPg-25" value="" style="points=[[0,0],[0.25,0],[0.5,0],[0.75,0],[1,0],[1,0.25],[1,0.5],[1,0.75],[1,1],[0.75,1],[0.5,1],[0.25,1],[0,1],[0,0.75],[0,0.5],[0,0.25]];outlineConnect=0;gradientColor=none;html=1;whiteSpace=wrap;fontSize=12;fontStyle=0;container=1;pointerEvents=0;collapsible=0;recursiveResize=0;shape=mxgraph.aws4.groupCenter;grIcon=mxgraph.aws4.group_auto_scaling_group;grStroke=1;strokeColor=#D86613;fillColor=none;verticalAlign=top;align=center;fontColor=#D86613;dashed=1;spacingTop=25;opacity=40;textOpacity=40;" parent="1" vertex="1">
          <mxGeometry x="237.88" y="239" width="351" height="122" as="geometry" />
        </mxCell>
        <mxCell id="G54zRT6geTaN7XepT4RT-1" value="" style="rounded=0;whiteSpace=wrap;html=1;fillColor=#f5f5f5;fontColor=#333333;strokeColor=#666666;" parent="1" vertex="1">
          <mxGeometry x="223.38" y="392" width="377.25" height="136" as="geometry" />
        </mxCell>
        <mxCell id="G54zRT6geTaN7XepT4RT-2" value="Graviton Managed Node Group" style="text;html=1;align=center;verticalAlign=middle;resizable=0;points=[];autosize=1;strokeColor=none;fillColor=none;fontStyle=1" parent="1" vertex="1">
          <mxGeometry x="317.63" y="425" width="195" height="26" as="geometry" />
        </mxCell>
        <mxCell id="G54zRT6geTaN7XepT4RT-4" value="" style="sketch=0;points=[[0,0,0],[0.25,0,0],[0.5,0,0],[0.75,0,0],[1,0,0],[0,1,0],[0.25,1,0],[0.5,1,0],[0.75,1,0],[1,1,0],[0,0.25,0],[0,0.5,0],[0,0.75,0],[1,0.25,0],[1,0.5,0],[1,0.75,0]];outlineConnect=0;fontColor=#232F3E;gradientColor=#F78E04;gradientDirection=north;fillColor=#D05C17;strokeColor=#ffffff;dashed=0;verticalLabelPosition=bottom;verticalAlign=top;align=center;html=1;fontSize=12;fontStyle=0;aspect=fixed;shape=mxgraph.aws4.resourceIcon;resIcon=mxgraph.aws4.ec2;" parent="1" vertex="1">
          <mxGeometry x="392.63" y="459" width="37" height="37" as="geometry" />
        </mxCell>
        <mxCell id="G54zRT6geTaN7XepT4RT-5" value="t4g.medium" style="text;html=1;align=center;verticalAlign=middle;resizable=0;points=[];autosize=1;strokeColor=none;fillColor=none;" parent="1" vertex="1">
          <mxGeometry x="371.5" y="491" width="81" height="26" as="geometry" />
        </mxCell>
        <mxCell id="G54zRT6geTaN7XepT4RT-6" value="&lt;b&gt;Name: &lt;/b&gt;graviton" style="text;html=1;align=center;verticalAlign=middle;resizable=0;points=[];autosize=1;strokeColor=none;fillColor=none;" parent="1" vertex="1">
          <mxGeometry x="365.13" y="439" width="101" height="26" as="geometry" />
        </mxCell>
        <mxCell id="G54zRT6geTaN7XepT4RT-7" value="" style="points=[[0,0],[0.25,0],[0.5,0],[0.75,0],[1,0],[1,0.25],[1,0.5],[1,0.75],[1,1],[0.75,1],[0.5,1],[0.25,1],[0,1],[0,0.75],[0,0.5],[0,0.25]];outlineConnect=0;gradientColor=none;html=1;whiteSpace=wrap;fontSize=12;fontStyle=0;container=1;pointerEvents=0;collapsible=0;recursiveResize=0;shape=mxgraph.aws4.groupCenter;grIcon=mxgraph.aws4.group_auto_scaling_group;grStroke=1;strokeColor=#D86613;fillColor=none;verticalAlign=top;align=center;fontColor=#D86613;dashed=1;spacingTop=25;" parent="1" vertex="1">
          <mxGeometry x="227.38" y="400" width="363" height="121" as="geometry" />
        </mxCell>
        <mxCell id="G54zRT6geTaN7XepT4RT-8" style="edgeStyle=orthogonalEdgeStyle;rounded=0;orthogonalLoop=1;jettySize=auto;html=1;exitX=1;exitY=0.5;exitDx=0;exitDy=0;exitPerimeter=0;" parent="1" target="G54zRT6geTaN7XepT4RT-7" edge="1">
          <mxGeometry relative="1" as="geometry">
            <mxPoint x="133.38" y="400" as="sourcePoint" />
            <mxPoint x="216" y="560" as="targetPoint" />
            <Array as="points">
              <mxPoint x="182" y="400" />
              <mxPoint x="182" y="461" />
            </Array>
          </mxGeometry>
        </mxCell>
        <mxCell id="G54zRT6geTaN7XepT4RT-10" value="Node Group" style="text;html=1;align=center;verticalAlign=middle;resizable=0;points=[];autosize=1;strokeColor=none;fillColor=none;fontStyle=1" parent="1" vertex="1">
          <mxGeometry x="523.38" y="372" width="87" height="26" as="geometry" />
        </mxCell>
        <mxCell id="vw9OJRyYJZxQpobx0ZBG-6" value="" style="sketch=0;points=[[0,0,0],[0.25,0,0],[0.5,0,0],[0.75,0,0],[1,0,0],[0,1,0],[0.25,1,0],[0.5,1,0],[0.75,1,0],[1,1,0],[0,0.25,0],[0,0.5,0],[0,0.75,0],[1,0.25,0],[1,0.5,0],[1,0.75,0]];outlineConnect=0;fontColor=#232F3E;gradientColor=#F78E04;gradientDirection=north;fillColor=#D05C17;strokeColor=#ffffff;dashed=0;verticalLabelPosition=bottom;verticalAlign=top;align=center;html=1;fontSize=12;fontStyle=0;aspect=fixed;shape=mxgraph.aws4.resourceIcon;resIcon=mxgraph.aws4.ec2;opacity=40;textOpacity=40;" vertex="1" parent="1">
          <mxGeometry x="339.5" y="299" width="37" height="37" as="geometry" />
        </mxCell>
        <mxCell id="vw9OJRyYJZxQpobx0ZBG-7" value="m5.large" style="text;html=1;align=center;verticalAlign=middle;resizable=0;points=[];autosize=1;strokeColor=none;fillColor=none;opacity=40;textOpacity=40;" vertex="1" parent="1">
          <mxGeometry x="325" y="333" width="65" height="26" as="geometry" />
        </mxCell>
        <mxCell id="vw9OJRyYJZxQpobx0ZBG-8" value="" style="sketch=0;points=[[0,0,0],[0.25,0,0],[0.5,0,0],[0.75,0,0],[1,0,0],[0,1,0],[0.25,1,0],[0.5,1,0],[0.75,1,0],[1,1,0],[0,0.25,0],[0,0.5,0],[0,0.75,0],[1,0.25,0],[1,0.5,0],[1,0.75,0]];outlineConnect=0;fontColor=#232F3E;gradientColor=#F78E04;gradientDirection=north;fillColor=#D05C17;strokeColor=#ffffff;dashed=0;verticalLabelPosition=bottom;verticalAlign=top;align=center;html=1;fontSize=12;fontStyle=0;aspect=fixed;shape=mxgraph.aws4.resourceIcon;resIcon=mxgraph.aws4.ec2;opacity=40;textOpacity=40;" vertex="1" parent="1">
          <mxGeometry x="452.13" y="299" width="37" height="37" as="geometry" />
        </mxCell>
        <mxCell id="vw9OJRyYJZxQpobx0ZBG-9" value="m5.large" style="text;html=1;align=center;verticalAlign=middle;resizable=0;points=[];autosize=1;strokeColor=none;fillColor=none;opacity=40;textOpacity=40;" vertex="1" parent="1">
          <mxGeometry x="437.63" y="333" width="65" height="26" as="geometry" />
        </mxCell>
      </root>
    </mxGraphModel>
  </diagram>
</mxfile>
